<svg width="27" height="27" viewBox="0 0 27 27" fill="none" xmlns="http://www.w3.org/2000/svg">
<path d="M3.35999 14.5598C7.39199 5.59984 19.488 5.59984 23.52 14.5598" stroke="#A1A1AA" stroke-width="2.688" stroke-linecap="round" stroke-linejoin="round"/>
<path d="M13.44 19.0398C12.9988 19.0398 12.5619 18.9529 12.1542 18.7841C11.7465 18.6152 11.3761 18.3677 11.0641 18.0557C10.7521 17.7437 10.5046 17.3733 10.3358 16.9656C10.1669 16.558 10.08 16.1211 10.08 15.6798C10.08 15.2386 10.1669 14.8017 10.3358 14.394C10.5046 13.9864 10.7521 13.6159 11.0641 13.3039C11.3761 12.9919 11.7465 12.7444 12.1542 12.5756C12.5619 12.4067 12.9988 12.3198 13.44 12.3198C14.3311 12.3198 15.1858 12.6738 15.8159 13.3039C16.446 13.9341 16.8 14.7887 16.8 15.6798C16.8 16.571 16.446 17.4256 15.8159 18.0557C15.1858 18.6858 14.3311 19.0398 13.44 19.0398Z" stroke="#A1A1AA" stroke-width="2.688" stroke-linecap="round" stroke-linejoin="round"/>
</svg>
