<svg width="30" height="30" viewBox="0 0 30 30" fill="none" xmlns="http://www.w3.org/2000/svg">
<path d="M24.4324 22.4427C24.6966 22.7069 24.845 23.0652 24.845 23.4388C24.845 23.8124 24.6966 24.1707 24.4324 24.4349C24.1682 24.6991 23.8099 24.8475 23.4363 24.8475C23.0627 24.8475 22.7044 24.6991 22.4402 24.4349L15 16.9923L7.55743 24.4326C7.29325 24.6967 6.93495 24.8452 6.56134 24.8452C6.18773 24.8452 5.82943 24.6967 5.56524 24.4326C5.30106 24.1684 5.15265 23.8101 5.15265 23.4365C5.15265 23.0629 5.30106 22.7046 5.56524 22.4404L13.0078 15.0001L5.56759 7.55757C5.30341 7.29339 5.15499 6.93508 5.15499 6.56147C5.15499 6.18786 5.30341 5.82956 5.56759 5.56538C5.83177 5.3012 6.19007 5.15278 6.56368 5.15278C6.93729 5.15278 7.2956 5.3012 7.55978 5.56538L15 13.008L22.4426 5.56421C22.7068 5.30003 23.0651 5.15161 23.4387 5.15161C23.8123 5.15161 24.1706 5.30003 24.4348 5.56421C24.699 5.82839 24.8474 6.18669 24.8474 6.5603C24.8474 6.93391 24.699 7.29221 24.4348 7.55639L16.9922 15.0001L24.4324 22.4427Z" fill="#4E555B"/>
</svg>
